<svg width="2818" height="713" viewBox="0 0 2818 713" fill="none" xmlns="http://www.w3.org/2000/svg">
<path d="M690.5 457V522H419.5V172H684V237H500V313H662.5V376H500V457H690.5ZM1075.95 172V522H1009.45L834.949 309.5V522H754.949V172H821.949L995.949 384.5V172H1075.95ZM1479.76 172V522H1413.26L1238.76 309.5V522H1158.76V172H1225.76L1399.76 384.5V172H1479.76ZM1732.07 528C1695.73 528 1662.9 520.167 1633.57 504.5C1604.57 488.833 1581.73 467.333 1565.07 440C1548.73 412.333 1540.57 381.333 1540.57 347C1540.57 312.667 1548.73 281.833 1565.07 254.5C1581.73 226.833 1604.57 205.167 1633.57 189.5C1662.9 173.833 1695.73 166 1732.07 166C1768.4 166 1801.07 173.833 1830.07 189.5C1859.07 205.167 1881.9 226.833 1898.57 254.5C1915.23 281.833 1923.57 312.667 1923.57 347C1923.57 381.333 1915.23 412.333 1898.57 440C1881.9 467.333 1859.07 488.833 1830.07 504.5C1801.07 520.167 1768.4 528 1732.07 528ZM1732.07 459C1752.73 459 1771.4 454.333 1788.07 445C1804.73 435.333 1817.73 422 1827.07 405C1836.73 388 1841.57 368.667 1841.57 347C1841.57 325.333 1836.73 306 1827.07 289C1817.73 272 1804.73 258.833 1788.07 249.5C1771.4 239.833 1752.73 235 1732.07 235C1711.4 235 1692.73 239.833 1676.07 249.5C1659.4 258.833 1646.23 272 1636.57 289C1627.23 306 1622.57 325.333 1622.57 347C1622.57 368.667 1627.23 388 1636.57 405C1646.23 422 1659.4 435.333 1676.07 445C1692.73 454.333 1711.4 459 1732.07 459ZM2309.22 172L2157.72 522H2077.72L1926.72 172H2014.22L2120.72 422L2228.72 172H2309.22ZM2338.45 172H2419.45V522H2338.45V172ZM2723.01 522L2638.51 400.5L2555.51 522H2462.51L2592.01 344L2469.01 172H2561.01L2641.51 285.5L2720.51 172H2808.01L2686.01 341L2816.51 522H2723.01Z" fill="#1A254E"/>
<path d="M333 0L354 59.5V117.5C27 135.5 44.5 600 354 600V657.5H337L312 713L270 707.5L266 646.5L241.5 639L205.5 684.5L167 662L182.5 604L167 589L112.5 621.5L82 589L112.5 536.5L103.5 519.5L42.5 536.5L21 491.5L69.5 454.5L65.5 430L4 425.5L0 382L57.5 362V338L0 313L9.5 269H69.5L77 248L30.5 207L54 166.5L112.5 185.5L127 166.5L92.5 112.5L127 81L178 117.5L197 102L181.5 44.5L223 24.5L260.5 73.5L283 65.5L287 5.5L333 0Z" fill="#1A254E"/>
<path d="M329 152H341V163H378.5V183H340.5V206H378.5V226.5H340.5V261.5H378.5V282H340.5V345H378.5V364.5H340.5V396.5H378.5V418H340.5V469H378.5V489.5H340.5V512.5H378.5V532L336.5 534V547L329.5 563.5H316L312 539.5H306L298.5 559L286.5 558L284.5 532L278.5 531L266.5 550.5L256 547L260 523.5L253 519.5L236 536.5L226 528.5L235.5 507.5L229.5 503L209 515.5L200.5 507L213.5 487.5L209 482.5L188 493L179 481L195.5 466L191.5 459L169.5 467L162.5 454L180 440.5L177 434.5L151.5 438.5L149.5 423.5L170 414L169.5 407.5L141.5 406V392.5L165.5 386L165 378.5L141.5 375.5V359.5H163.5V348.5L141.5 345V328H165.5L166.5 320L146.5 311L150 298L175.5 302L178.5 295L155.5 282L163.5 267.5L184.5 275.5L188.5 267.5L170 253L179.5 239.5L201 250L206 243L188.5 226.5L200 213.5C206.167 219.5 217.977 230.523 219.5 229C222 226.5 224.167 223.833 226 222.5L213 202L226 192.5L241.5 209.5L246.5 206L238 183L253 177L267 195.5L275 192.5L267 168.5L282 163L293 185.5L300 183L297.5 159L313 156.5L321.5 177H329V152Z" fill="#121C42" fill-opacity="0.6"/>
<path d="M200.5 337.5C213 268 264.5 222.5 325.5 214V272C291.5 279.5 268 306 258.5 337.5H200.5Z" fill="white"/>
<path d="M200.5 381C213 450.5 264.5 496 325.5 504.5V446.5C291.5 439 268 412.5 258.5 381H200.5Z" fill="white"/>
<path d="M328 318.5C291 337.5 292 386 328 400.5V318.5Z" fill="white"/>
<line x1="378" y1="172" x2="421" y2="172" stroke="#B7B7B7" stroke-width="2"/>
<line x1="421" y1="173" x2="421" y2="112" stroke="#B7B7B7" stroke-width="2"/>
<line x1="421" y1="113" x2="490" y2="113" stroke="#B7B7B7" stroke-width="2"/>
<line x1="489" y1="114" x2="489" y2="98" stroke="#B7B7B7" stroke-width="2"/>
<rect x="482" y="82" width="14" height="16" fill="#AFAFAF"/>
<line y1="-1" x2="43" y2="-1" transform="matrix(1 0 0 -1 378 522)" stroke="#B7B7B7" stroke-width="2"/>
<line y1="-1" x2="61" y2="-1" transform="matrix(0 1 1 0 422 522)" stroke="#B7B7B7" stroke-width="2"/>
<line y1="-1" x2="69" y2="-1" transform="matrix(1 0 0 -1 421 581)" stroke="#B7B7B7" stroke-width="2"/>
<line y1="-1" x2="16" y2="-1" transform="matrix(0 1 1 0 490 581)" stroke="#B7B7B7" stroke-width="2"/>
<rect width="14" height="16" transform="matrix(1 0 0 -1 482 613)" fill="#AFAFAF"/>
<line x1="378" y1="476" x2="453" y2="476" stroke="#B3B3B3" stroke-width="2"/>
<rect x="453" y="470" width="14" height="15" fill="#B3B3B3"/>
<line x1="378" y1="215" x2="453" y2="215" stroke="#B3B3B3" stroke-width="2"/>
<rect x="453" y="209" width="14" height="15" fill="#B3B3B3"/>
<line x1="378" y1="269" x2="392" y2="269" stroke="#B3B3B3" stroke-width="2"/>
<line x1="391" y1="269" x2="391" y2="297" stroke="#B3B3B3" stroke-width="2"/>
<line x1="390" y1="297" x2="525" y2="297" stroke="#B3B3B3" stroke-width="2"/>
<rect x="525" y="292" width="12" height="11" fill="#B3B3B3"/>
<line x1="378" y1="351" x2="598" y2="351" stroke="#B3B3B3" stroke-width="2"/>
<rect x="598" y="345" width="14" height="13" fill="#B3B3B3"/>
<line x1="378" y1="404" x2="485.591" y2="404" stroke="#B3B3B3" stroke-opacity="0.51" stroke-width="2"/>
<rect x="485.591" y="398" width="14.4094" height="14" fill="#B3B3B3"/>
</svg>
